<svg xmlns="http://www.w3.org/2000/svg" xml:space="preserve" width="2000" height="1500" data-id="lg_LuroxRYiAA7A0WxuZ3" data-version="1" viewBox="0 0 2000 1500"><path fill="#fff" stroke="transparent" d="M0 0h2000v1500H0z"/><g data-padding="20"><g transform="translate(-887.712 -659.923)scale(1.83844)"><rect width="483.862" height="504.64" x="405.052" y="72.996" fill="#0080ff" rx="0" ry="0" transform="matrix(.99 0 0 .99 399.65 399.63)"/><rect width="563.819" height="166.828" x="365.073" y="241.902" fill="#fff" rx="0" ry="0" transform="matrix(.99 0 0 .99 386.29 513.56)"/><rect width="453.116" height="99.44" x="413.955" y="272.343" fill="none" rx="0" ry="0" transform="translate(386.69 513.68)"/><path fill="#0080ff" d="M817.573 863.383h-17.07l24.99-62.3h16.19l24.73 62.3h-17.16l-3.08-8.8h-25.43Zm16.02-44.52-7.84 21.38h15.4Zm45.58 46.02q-3.7 0-6.38-2.29t-2.68-6.77q0-4.58 2.77-7.09t6.38-2.51 6.25 2.47q2.64 2.46 2.64 7.04 0 4.57-2.64 6.86t-6.34 2.29m34.94-1.5h-15.93v-62.3h26.13q7.31 0 12.85 2.07 5.55 2.07 8.71 6.86 3.17 4.8 3.17 13.16 0 7.65-3.34 12.71-3.35 5.06-9.07 7.53-5.72 2.46-12.93 2.46h-9.59Zm0-47.52v15.84h9.59q4.57 0 7.13-2.2 2.55-2.2 2.55-6.24 0-3.61-2.25-5.5-2.24-1.9-7.52-1.9Zm50.24 49.02q-3.69 0-6.38-2.29-2.68-2.29-2.68-6.77 0-4.58 2.77-7.09t6.38-2.51 6.25 2.47q2.64 2.46 2.64 7.04 0 4.57-2.64 6.86t-6.34 2.29m29.74-1.5h-17.07l24.99-62.3h16.19l24.73 62.3h-17.16l-3.08-8.8h-25.43Zm16.01-44.52-7.83 21.38h15.4Zm45.6 46.02q-3.7 0-6.38-2.29-2.69-2.29-2.69-6.77 0-4.58 2.78-7.09 2.77-2.51 6.38-2.51 3.6 0 6.24 2.47 2.64 2.46 2.64 7.04 0 4.57-2.64 6.86t-6.33 2.29m34.93-1.5h-15.92v-62.3h14.87l26.31 35.64v-35.64h15.93v62.3h-14.43l-26.76-35.11Zm60.28 1.5q-3.69 0-6.38-2.29-2.68-2.29-2.68-6.77 0-4.58 2.77-7.09t6.38-2.51 6.25 2.47q2.64 2.46 2.64 7.04 0 4.57-2.64 6.86t-6.34 2.29m34.94-1.5h-15.93v-62.3h26.31q4.23 0 8.63.79t8.18 2.95q3.79 2.16 6.07 6.2 2.29 4.05 2.29 10.56 0 4.05-1.23 7.62-1.23 3.56-3.92 6.29-2.68 2.73-7.08 4.4l14.43 23.49h-18.13l-11.96-21.03h-7.66Zm0-47.52v12.5h10.47q2.29 0 4.01-.44 1.71-.44 2.9-1.28 1.19-.83 1.8-2.06.62-1.24.62-2.91 0-2.46-1.23-3.69-1.23-1.24-3.26-1.68-2.02-.44-4.57-.44Zm53.86 49.02q-3.7 0-6.38-2.29-2.69-2.29-2.69-6.77 0-4.58 2.77-7.09 2.78-2.51 6.38-2.51 3.61 0 6.25 2.47 2.64 2.46 2.64 7.04 0 4.57-2.64 6.86t-6.33 2.29"/><path fill="#fff" d="M916.513 931.533h248l-124 130.4Zm-31.6-328.635s13.481-12.267 19.466-11.163c5.985 1.128 24.696 15.087 35.185 13.959 10.458-1.104 32.162-13.395 39.66-12.831 7.496.54 32.192 12.29 45.674 11.726s30.65-13.96 38.115-12.854c7.497 1.128 29.988 17.32 41.202 17.32s23.184-11.75 32.917-11.75 58.37 12.854 59.125 18.447-12.726 13.395-20.947 12.83-24.696-12.29-32.949-9.493c-8.22 2.796-15.718 7.26-30.68 8.93-14.963 1.692-15.719-5.006-34.43-5.006s-41.896 12.267-58.37 12.267c-16.443 0-11.97-13.395-29.169-12.83-17.23.54-29.2 6.697-38.178 7.26s-44.919-7.848-54.652-12.313c-9.702-4.465-14.963-7.802-11.97-14.523"/><path fill="#fff" d="m1138.487 543.419 3.465-19.857-19.152-1.857 4.347-24.816-25.2-2.444c-10.458-1.01-22.239 12.573-29.358 22.513-20.097-1.88-39.847-3.666-51.723-4.606-20.034-1.597-31.027 10.952-36.414 20.563l-103.194-7.05c25.2 42.935 51.188 62.11 64.985 69.889a166.95 124.55 0 0 0 13.041-4.982c8.536-3.525 15.907-6.533 21.01-6.533l.945.047c3.591.258 9.072 2.138 16.002 4.535 9.324 3.196 20.916 7.19 28.287 7.19h.725c5.985-.257 13.64-3.9 20.412-7.12 6.552-3.101 12.222-5.804 17.041-5.804q.945 0 1.764.118c3.78.564 8.79 3.172 16.601 7.355s18.49 9.894 23.751 9.894c4.441 0 9.891-2.82 15.151-5.593 6.017-3.15 11.718-6.11 17.766-6.11 2.741 0 7.56.752 13.167 1.95 18.302-20.07 20.79-44.932 20.79-44.932ZM991.855 561.49l-15.655-1.08 1.448-11.68 15.656 1.082Zm24.601 1.645-15.655-1.057 1.45-11.68 15.654 1.08Zm24.57 1.692-15.624-1.057 1.418-11.68 15.655 1.058Zm24.602 1.692-15.624-1.081 1.417-11.68 15.656 1.082Zm24.601 1.669-15.655-1.058 1.45-11.68 15.654 1.058Zm24.602 1.668-15.656-1.057 1.45-11.68 15.623 1.058Z"/><rect width="306.797" height="90.387" x="487.114" y="276.869" fill="#0080ff" rx="0" ry="0" transform="translate(400 369.58)"/><rect width="218.891" height="68.93" x="531.067" y="287.598" fill="none" rx="0" ry="0" transform="translate(411.33 370.08)"/><path fill="#fff" d="M973.083 698.703q0 3.88-1.88 6.74t-5.47 4.4q-3.59 1.55-8.71 1.55-2.26 0-4.42-.29-2.16-.3-4.14-.88t-3.77-1.45v-8.58q3.1 1.37 6.43 2.48 3.34 1.1 6.62 1.1 2.26 0 3.64-.6 1.39-.59 2.01-1.64.63-1.04.63-2.38 0-1.64-1.1-2.8t-3.02-2.17q-1.93-1.02-4.34-2.18-1.52-.71-3.3-1.74-1.79-1.03-3.4-2.52t-2.64-3.62q-1.02-2.12-1.02-5.1 0-3.91 1.78-6.68 1.79-2.77 5.11-4.24t7.85-1.47q3.4 0 6.48.79 3.08.78 6.45 2.27l-2.98 7.18q-3.01-1.22-5.39-1.89-2.39-.67-4.86-.67-1.73 0-2.95.55t-1.84 1.55q-.63 1-.63 2.31 0 1.55.91 2.61.91 1.05 2.74 2.04 1.83.98 4.57 2.29 3.34 1.58 5.71 3.29 2.36 1.71 3.64 4.02 1.29 2.31 1.29 5.73m5.9 7.84q0-2.8 1.54-3.93 1.53-1.14 3.7-1.14 2.12 0 3.65 1.14 1.54 1.13 1.54 3.93 0 2.68-1.54 3.87-1.53 1.19-3.65 1.19-2.17 0-3.7-1.19-1.54-1.19-1.54-3.87m19.39-39.29h13.91q8.43 0 12.3 3.62 3.88 3.62 3.88 9.96 0 2.86-.87 5.47-.86 2.61-2.81 4.63-1.95 2.03-5.2 3.2-3.25 1.18-8.01 1.18h-3.96v15.49h-9.24Zm13.44 7.57h-4.2v12.92h3.03q2.6 0 4.5-.68 1.91-.69 2.95-2.15t1.04-3.75q0-3.22-1.78-4.78-1.79-1.56-5.54-1.56m22.86 31.72q0-2.8 1.53-3.93 1.54-1.14 3.71-1.14 2.12 0 3.65 1.14 1.54 1.13 1.54 3.93 0 2.68-1.54 3.87-1.53 1.19-3.65 1.19-2.17 0-3.71-1.19-1.53-1.19-1.53-3.87m56 4.27h-9.95l-3.16-10.37h-15.87l-3.16 10.37h-9.95l15.37-43.73h11.29Zm-26.66-18.11h11.35l-3.16-10.13q-.3-1.01-.79-2.6-.49-1.6-.98-3.25t-.79-2.88q-.3 1.23-.82 3.03t-1 3.41q-.47 1.61-.68 2.29Zm30.14 13.84q0-2.8 1.54-3.93 1.53-1.14 3.7-1.14 2.12 0 3.65 1.14 1.54 1.13 1.54 3.93 0 2.68-1.54 3.87-1.53 1.19-3.65 1.19-2.17 0-3.7-1.19-1.54-1.19-1.54-3.87m36.19-31.6v35.86h-9.23v-35.86h-11.83v-7.69h32.89v7.69Zm16.54 31.6q0-2.8 1.54-3.93 1.53-1.14 3.7-1.14 2.12 0 3.65 1.14 1.54 1.13 1.54 3.93 0 2.68-1.54 3.87-1.53 1.19-3.65 1.19-2.17 0-3.7-1.19-1.54-1.19-1.54-3.87"/></g><path fill="transparent" stroke="transparent" stroke-width="1.907" d="M468.008 187.5h1063.984v1125H468.008z"/></g></svg>